<?xml version="1.0" encoding="UTF-8"?>
<svg width="24px" height="24px" viewBox="0 0 24 24" version="1.1" xmlns="http://www.w3.org/2000/svg"
     xmlns:xlink="http://www.w3.org/1999/xlink">
    <title>ic/robotdecision_tab_click</title>
    <g id="ic/robotdecision_tab_click" stroke="none" stroke-width="1" fill="none" fill-rule="evenodd">
        <g id="编组" transform="translate(0.000000, 1.000000)" fill="#733CE9" fill-rule="nonzero">
            <path d="M3.60600317,19.237357 C3.2386416,19.237357 2.92987757,18.9158598 2.92987757,18.5333484 L2.92987757,14.5204994 C2.92987757,10.7892538 5.84397889,7.75497671 9.42744454,7.75497671 C13.0109102,7.75497671 15.9250115,10.7892538 15.9250115,14.5204994 L15.9250115,18.5333484 C15.9250115,18.9158598 15.6162475,19.237357 15.2488859,19.237357 L3.60600317,19.237357 Z"
                  id="路径" opacity="0.1"></path>
            <path d="M12.467756,14.2928699 C11.9719306,14.2928699 11.5662552,13.8704648 11.5662552,13.3541918 L11.5662552,12.3615397 C11.5662552,11.8452667 11.9719305,11.4228615 12.467756,11.4228615 C12.9635814,11.4228615 13.3692568,11.8452667 13.3692568,12.3615397 L13.3692568,13.3541918 C13.3692568,13.8704648 12.9635814,14.2928699 12.467756,14.2928699 Z M6.38713311,14.2928699 C5.89130768,14.2928699 5.48563232,13.8704648 5.48563232,13.3541918 L5.48563232,12.3615397 C5.48563232,11.8452667 5.89130768,11.4228615 6.38713311,11.4228615 C6.88295854,11.4228615 7.28863392,11.8452667 7.28863392,12.3615397 L7.28863392,13.3541918 C7.28863392,13.8704648 6.88295856,14.2928699 6.38713311,14.2928699 Z"
                  id="形状"></path>
            <path d="M15.339036,6.87965933 L16.5087333,4.75590006 C17.1307688,4.75824674 17.7370281,4.42032261 18.0750909,3.81018181 C18.5776776,2.89731732 18.2891974,1.72631635 17.4282641,1.19126981 C16.5695846,0.658569956 15.4652461,0.965987056 14.9626594,1.87650487 C14.6268504,2.48664567 14.6471341,3.21412121 14.9536444,3.78906156 L13.8245147,5.83772659 C12.4706415,5.09109892 10.9617368,4.70113615 9.42969829,4.70192605 C7.96449556,4.70128439 6.51953265,5.05813333 5.21067457,5.74385879 L4.13563487,3.79140827 C4.45396017,3.19609054 4.45054186,2.47088716 4.12661988,1.87885155 C3.62403319,0.965987056 2.5196947,0.658569984 1.6610152,1.19361652 C0.802335689,1.72631637 0.511601683,2.89966403 1.01418839,3.81252853 C1.33444211,4.39868482 1.93288706,4.76000735 2.58054601,4.75824674 L3.67812324,6.75293778 C1.44240126,8.54581303 0,11.3595007 0,14.5181527 L0,18.5310017 C0,20.600787 1.61819392,22.2857143 3.60600317,22.2857143 L15.2511397,22.2857143 C17.2389489,22.2857143 18.8571429,20.600787 18.8571429,18.5310017 L18.8571429,14.5181527 C18.8548891,11.434595 17.4823542,8.67957466 15.339036,6.87965933 Z M17.0518875,18.5333484 C17.0518875,19.5682411 16.2427905,20.4107047 15.2488859,20.4107047 L3.60600317,20.4107047 C2.61209854,20.4107047 1.80300157,19.568241 1.80300157,18.5333484 L1.80300157,14.5204994 C1.80300157,10.1415659 5.22419708,6.58162903 9.42744454,6.58162903 C13.6329457,6.58162903 17.0518875,10.1439126 17.0518875,14.5204994 L17.0518875,18.5333484 Z"
                  id="形状"></path>
            <path d="M11.2304461,18.9228998 L7.62444295,18.9228998 C7.12861752,18.9228998 6.72294216,18.5004947 6.72294216,17.9842217 L6.72294216,17.9490213 C6.72294216,17.4327483 7.12861752,17.0103431 7.62444295,17.0103431 L11.2304461,17.0103431 C11.7262716,17.0103431 12.1319469,17.4327483 12.1319469,17.9490213 L12.1319469,17.9842217 C12.1319469,18.5004947 11.7262716,18.9228998 11.2304461,18.9228998 Z"
                  id="路径"></path>
            <path d="M10.5272755,3.60836603 C10.2658403,3.60836603 10.0201813,3.49103126 9.84889616,3.28686876 L9.15924805,2.46552538 L8.66793013,3.20473442 C8.49946273,3.45824662 8.22251842,3.60987946 7.92644572,3.61071272 L6.33980432,3.61071272 C5.84172512,3.61071272 5.43830353,3.19065424 5.43830353,2.67203459 C5.43830353,2.15341494 5.84172514,1.73335646 6.33980432,1.73335643 L7.45541155,1.73335643 L8.33662859,0.405126886 C8.49439122,0.165763961 8.74906521,0.0179221545 9.02853044,0.00149526873 C9.30799568,-0.0149315895 9.57619217,0.104749873 9.75874609,0.32299254 L10.9374584,1.73100975 L12.74046,1.71927626 L12.7472212,1.71927626 C13.2451064,1.7173322 13.6502356,2.13601674 13.6521091,2.65443436 C13.6539697,3.17285198 13.2518676,3.59468848 12.7539825,3.59663255 L10.5362905,3.61071272 C10.531783,3.60836603 10.5295293,3.60836603 10.5272755,3.60836603 L10.5272755,3.60836603 Z"
                  id="路径"></path>
        </g>
        <g id="编组" transform="translate(13.285714, 13.714286)" fill-rule="nonzero">
            <g id="金币-(1)">
                <path d="M5,0 C2.24,0 0,2.24 0,5 C0,7.76 2.24,10 5,10 C7.76,10 10,7.76 10,5 C10,2.24 7.76000001,0 5,0 Z"
                      id="路径" fill="#FC6500"></path>
                <path d="M5.12800001,7.112 L5.12800001,7.72 L4.80800001,7.72 L4.80800001,7.07999999 C4.10400001,7.04799999 3.68800001,6.63199999 3.56000001,5.89599999 L3.97600001,5.76799999 C4.07200001,6.344 4.32800001,6.66399999 4.84000001,6.72799999 L4.84000001,5.15999999 C4.04000002,4.968 3.68800002,4.616 3.72000001,4.072 C3.75200002,3.43199999 4.10400001,3.07999999 4.84000001,3.01599999 L4.84000001,2.6 L5.16,2.6 L5.16,3.04800001 C5.8,3.11200001 6.184,3.46400001 6.312,4.10400001 L5.896,4.23200001 C5.8,3.75200001 5.576,3.49600001 5.16,3.40000001 L5.16,4.77600001 C6.02400001,5.00000001 6.44000001,5.384 6.408,5.96000001 C6.344,6.664 5.928,7.016 5.12800001,7.112 Z"
                      id="路径" fill="#FFFFFF"></path>
            </g>
            <path d="M4.104,4.072 C4.104,4.36 4.296,4.584 4.808,4.74399999 L4.808,3.432 C4.36000001,3.464 4.136,3.688 4.104,4.072 Z"
                  id="路径" fill="#FC6500"></path>
            <path d="M5.12800001,5.224 L5.12800001,6.696 C5.64000001,6.664 5.928,6.408 5.96000001,5.96000001 C5.992,5.64 5.73600001,5.384 5.12800001,5.224 Z"
                  id="路径" fill="#FC6500"></path>
        </g>
    </g>
</svg>